<svg version="1.1" id="Layer_1" xmlns="http://www.w3.org/2000/svg" xmlns:xlink="http://www.w3.org/1999/xlink" x="0px" y="0px"
	 width="100%" viewBox="0 0 512 512" enable-background="new 0 0 512 512" xml:space="preserve">
<path fill="#FFFFFF" opacity="1.000000" stroke="none" 
	d="
M513.000000,115.000000 
	C513.000000,247.625183 513.000000,380.250366 513.000000,512.937744 
	C342.428223,512.937744 171.856415,512.937744 1.000000,512.937744 
	C1.000000,360.309387 1.000000,207.618576 1.343038,54.543243 
	C5.855747,60.942181 12.047820,62.832867 19.662022,62.080284 
	C24.118076,61.639851 28.653261,62.000000 33.152847,62.000000 
	C53.293964,62.000000 73.435081,62.000000 93.602768,62.000000 
	C95.167725,69.683655 96.537949,77.114929 98.208534,84.478050 
	C102.731781,104.414406 107.535896,124.287949 111.945885,144.248871 
	C118.133194,172.254471 123.937180,200.344849 130.144669,228.345856 
	C135.579422,252.861099 141.402252,277.290344 146.820190,301.809143 
	C147.142639,303.268341 145.850189,306.019318 144.525833,306.750732 
	C137.666397,310.539093 132.085632,315.521271 127.977310,322.190094 
	C117.586472,339.057068 117.863571,356.247925 128.418228,372.491943 
	C136.590744,385.069702 148.829559,392.156830 164.461380,392.011017 
	C171.454910,391.945801 178.449554,392.000000 185.443695,392.000000 
	C157.483322,401.340851 148.334824,422.238098 151.154831,445.579712 
	C153.259338,462.999054 173.299500,480.948608 189.121780,482.113068 
	C219.077377,484.317780 236.297165,467.515228 240.459763,446.240601 
	C244.227066,426.986298 238.983795,403.589661 206.225723,392.171326 
	C270.156464,392.171326 333.819824,392.171326 397.987457,392.171326 
	C368.235046,402.274628 360.714813,422.857697 363.127930,445.407043 
	C364.930054,462.247040 384.557922,480.663055 400.448792,482.046875 
	C427.738220,484.423248 446.495483,470.745392 452.310516,446.856384 
	C455.137970,435.240662 453.346252,423.372772 446.363953,412.616089 
	C439.566528,402.144287 429.989197,396.075928 418.472260,392.264313 
	C425.792694,392.000000 432.956665,392.023468 440.120209,391.978241 
	C441.403687,391.970154 442.782562,391.929108 443.951935,391.476135 
	C451.033112,388.733124 454.466461,381.413300 452.992310,372.475250 
	C452.021179,366.587097 445.708405,362.000305 438.570038,362.000275 
	C351.578033,361.999878 264.586029,362.015106 177.594055,361.957489 
	C173.024170,361.954468 168.430542,361.527618 163.890045,360.960907 
	C154.461853,359.784149 149.029083,349.420776 153.027222,340.786316 
	C156.593887,333.083679 163.630417,332.093353 170.638870,332.083374 
	C259.630524,331.956696 348.622803,331.891937 437.613464,332.214142 
	C444.410339,332.238770 451.399994,326.587219 452.983917,321.120117 
	C456.956207,307.409332 461.055298,293.734833 464.957733,280.004333 
	C473.205261,250.985825 481.359772,221.940903 489.552246,192.906738 
	C496.044312,169.898788 502.485443,146.876205 509.088135,123.900040 
	C509.975098,120.813522 511.675995,117.960915 513.000000,115.000000 
z"/>
<path fill="#000000" opacity="1.000000" stroke="none" 
	d="
M513.000000,114.535347 
	C511.675995,117.960915 509.975098,120.813522 509.088135,123.900040 
	C502.485443,146.876205 496.044312,169.898788 489.552246,192.906738 
	C481.359772,221.940903 473.205261,250.985825 464.957733,280.004333 
	C461.055298,293.734833 456.956207,307.409332 452.983917,321.120117 
	C451.399994,326.587219 444.410339,332.238770 437.613464,332.214142 
	C348.622803,331.891937 259.630524,331.956696 170.638870,332.083374 
	C163.630417,332.093353 156.593887,333.083679 153.027222,340.786316 
	C149.029083,349.420776 154.461853,359.784149 163.890045,360.960907 
	C168.430542,361.527618 173.024170,361.954468 177.594055,361.957489 
	C264.586029,362.015106 351.578033,361.999878 438.570038,362.000275 
	C445.708405,362.000305 452.021179,366.587097 452.992310,372.475250 
	C454.466461,381.413300 451.033112,388.733124 443.951935,391.476135 
	C442.782562,391.929108 441.403687,391.970154 440.120209,391.978241 
	C432.956665,392.023468 425.792694,392.000000 418.472260,392.264313 
	C429.989197,396.075928 439.566528,402.144287 446.363953,412.616089 
	C453.346252,423.372772 455.137970,435.240662 452.310516,446.856384 
	C446.495483,470.745392 427.738220,484.423248 400.448792,482.046875 
	C384.557922,480.663055 364.930054,462.247040 363.127930,445.407043 
	C360.714813,422.857697 368.235046,402.274628 397.987457,392.171326 
	C333.819824,392.171326 270.156464,392.171326 206.225723,392.171326 
	C238.983795,403.589661 244.227066,426.986298 240.459763,446.240601 
	C236.297165,467.515228 219.077377,484.317780 189.121780,482.113068 
	C173.299500,480.948608 153.259338,462.999054 151.154831,445.579712 
	C148.334824,422.238098 157.483322,401.340851 185.443695,392.000000 
	C178.449554,392.000000 171.454910,391.945801 164.461380,392.011017 
	C148.829559,392.156830 136.590744,385.069702 128.418228,372.491943 
	C117.863571,356.247925 117.586472,339.057068 127.977310,322.190094 
	C132.085632,315.521271 137.666397,310.539093 144.525833,306.750732 
	C145.850189,306.019318 147.142639,303.268341 146.820190,301.809143 
	C141.402252,277.290344 135.579422,252.861099 130.144669,228.345856 
	C123.937180,200.344849 118.133194,172.254471 111.945885,144.248871 
	C107.535896,124.287949 102.731781,104.414406 98.208534,84.478050 
	C96.537949,77.114929 95.167725,69.683655 93.602768,62.000000 
	C73.435081,62.000000 53.293964,62.000000 33.152847,62.000000 
	C28.653261,62.000000 24.118076,61.639851 19.662022,62.080284 
	C12.047820,62.832867 5.855747,60.942181 1.343038,54.079361 
	C1.000000,48.977909 1.000000,43.955814 1.390234,38.466751 
	C2.416167,37.896770 3.395635,38.020222 3.635348,37.656345 
	C6.627355,33.114525 10.879232,31.907877 16.126820,31.931864 
	C46.602253,32.071171 77.078644,31.997702 107.554710,32.002254 
	C112.662811,32.003017 118.668755,36.037766 119.956932,41.137623 
	C123.810463,56.393723 127.584023,71.680107 130.831253,87.072289 
	C131.660721,91.004074 132.829910,92.079788 136.700592,92.076752 
	C256.106750,91.982857 375.513153,92.072258 494.918915,91.840752 
	C503.056335,91.824974 508.799011,94.331734 513.000000,101.000000 
	C513.000000,105.356903 513.000000,109.713799 513.000000,114.535347 
M380.500000,302.000000 
	C394.495270,302.000000 408.491516,302.076111 422.484314,301.890259 
	C423.998474,301.870178 426.492035,300.633240 426.846344,299.454376 
	C432.385986,281.021881 437.702332,262.521393 442.962769,244.006088 
	C452.783203,209.441025 462.534332,174.856262 472.313568,140.279495 
	C473.991943,134.345261 475.666809,128.410034 477.430573,122.166252 
	C364.175751,122.166252 251.756378,122.166252 138.608643,122.166252 
	C151.953781,182.260834 165.229935,242.044739 178.544128,302.000000 
	C245.571838,302.000000 312.535919,302.000000 380.500000,302.000000 
M188.648102,424.898407 
	C183.621078,427.981232 181.857697,432.419617 181.828659,438.322174 
	C181.806198,442.891113 186.651779,449.144257 191.678085,450.833710 
	C196.824280,452.563446 203.977402,449.906799 207.044571,446.015961 
	C211.716187,440.089905 210.888428,432.525726 206.669952,427.268280 
	C203.146393,422.876892 195.520889,421.646240 188.648102,424.898407 
M394.012177,433.127960 
	C393.963135,446.078613 398.347168,451.173553 409.390564,451.000031 
	C416.460724,450.888947 421.988495,444.887878 422.000000,437.311005 
	C422.012238,429.256226 416.649872,423.469910 409.522156,422.910126 
	C401.891022,422.310791 397.480103,426.219421 394.012177,433.127960 
z"/>
<path fill="#FFFFFF" opacity="1.000000" stroke="none" 
	d="
M513.000000,100.531342 
	C508.799011,94.331734 503.056335,91.824974 494.918915,91.840752 
	C375.513153,92.072258 256.106750,91.982857 136.700592,92.076752 
	C132.829910,92.079788 131.660721,91.004074 130.831253,87.072289 
	C127.584023,71.680107 123.810463,56.393723 119.956932,41.137623 
	C118.668755,36.037766 112.662811,32.003017 107.554710,32.002254 
	C77.078644,31.997702 46.602253,32.071171 16.126820,31.931864 
	C10.879232,31.907877 6.627355,33.114525 3.635348,37.656345 
	C3.395635,38.020222 2.416167,37.896770 1.390234,37.999893 
	C1.000000,25.674980 1.000000,13.349960 0.999999,1.018705 
	C171.543320,1.012470 342.086639,1.012470 513.000000,1.012470 
	C513.000000,34.019974 513.000000,67.041328 513.000000,100.531342 
z"/>
<path fill="#FFFFFF" opacity="1.000000" stroke="none" 
	d="
M380.000000,302.000000 
	C312.535919,302.000000 245.571838,302.000000 178.544128,302.000000 
	C165.229935,242.044739 151.953781,182.260834 138.608643,122.166252 
	C251.756378,122.166252 364.175751,122.166252 477.430573,122.166252 
	C475.666809,128.410034 473.991943,134.345261 472.313568,140.279495 
	C462.534332,174.856262 452.783203,209.441025 442.962769,244.006088 
	C437.702332,262.521393 432.385986,281.021881 426.846344,299.454376 
	C426.492035,300.633240 423.998474,301.870178 422.484314,301.890259 
	C408.491516,302.076111 394.495270,302.000000 380.000000,302.000000 
z"/>
<path fill="#FFFFFF" opacity="1.000000" stroke="none" 
	d="
M188.911636,424.596405 
	C195.520889,421.646240 203.146393,422.876892 206.669952,427.268280 
	C210.888428,432.525726 211.716187,440.089905 207.044571,446.015961 
	C203.977402,449.906799 196.824280,452.563446 191.678085,450.833710 
	C186.651779,449.144257 181.806198,442.891113 181.828659,438.322174 
	C181.857697,432.419617 183.621078,427.981232 188.911636,424.596405 
z"/>
<path fill="#FFFFFF" opacity="1.000000" stroke="none" 
	d="
M394.095612,432.716888 
	C397.480103,426.219421 401.891022,422.310791 409.522156,422.910126 
	C416.649872,423.469910 422.012238,429.256226 422.000000,437.311005 
	C421.988495,444.887878 416.460724,450.888947 409.390564,451.000031 
	C398.347168,451.173553 393.963135,446.078613 394.095612,432.716888 
z"/>
</svg>